<svg ria-hiddaen="true" style="position: absolute; width: 0; height: 0; overflow: hidden;" version="1.1" xmlns="http://www.w3.org/2000/svg" xmlns:xlink="http://www.w3.org/1999/xlink">

<symbol id="chocolate"  viewBox="0 0 28 28">
<path d="M11.822 0.413012L19.349 7.94901L19.429 7.86901C19.5867 7.71469 19.7978 7.6272 20.0184 7.62477C20.239 7.62235 20.452 7.70519 20.613 7.85601L20.619 7.86201L21.486 8.72901C21.791 9.03401 21.801 9.49901 21.569 9.82301L21.565 9.83001L21.422 10.022L27.582 16.182C28.132 16.732 28.132 17.612 27.582 18.162L18.152 27.592C17.602 28.142 16.722 28.142 16.172 27.592L11.725 23.145C11.6512 23.2381 11.5584 23.3145 11.4529 23.3692C11.3474 23.4239 11.2316 23.4556 11.1129 23.4623C10.9943 23.469 10.8756 23.4505 10.7646 23.4081C10.6536 23.3656 10.5529 23.3002 10.469 23.216L7.86901 20.616C7.71469 20.4584 7.6272 20.2472 7.62477 20.0266C7.62235 19.806 7.70519 19.593 7.85601 19.432L7.86201 19.425L7.93901 19.349L0.412012 11.822C-0.137988 11.272 -0.137988 10.392 0.412012 9.84201L9.84201 0.412012C10.392 -0.137988 11.272 -0.137988 11.822 0.412012V0.413012ZM18.404 8.89301L16.648 7.13801C16.5928 7.0811 16.5268 7.03585 16.4538 7.00495C16.3808 6.97405 16.3023 6.95813 16.223 6.95813C16.1437 6.95813 16.0653 6.97405 15.9923 7.00495C15.9193 7.03585 15.8532 7.0811 15.798 7.13801L12.218 10.718C12.1613 10.7743 12.1163 10.8413 12.0856 10.9151C12.0548 10.9889 12.039 11.0681 12.039 11.148C12.039 11.2279 12.0548 11.3071 12.0856 11.3809C12.1163 11.4547 12.1613 11.5217 12.218 11.578L13.967 13.327L14.577 12.717L13.012 11.152L16.222 7.93201L17.791 9.50601L18.404 8.89301ZM13.328 13.965L11.574 12.211C11.5188 12.1541 11.4528 12.1088 11.3798 12.0779C11.3068 12.047 11.2283 12.0311 11.149 12.0311C11.0697 12.0311 10.9913 12.047 10.9183 12.0779C10.8453 12.1088 10.7792 12.1541 10.724 12.211L7.14401 15.791L7.13901 15.796L7.13401 15.801C6.89401 16.031 6.89401 16.411 7.13401 16.651L8.88601 18.403L9.50201 17.787L7.93201 16.223L11.152 13.013L12.716 14.576L13.328 13.965ZM6.82201 6.19301L10.402 9.77301C10.642 10.013 11.022 10.013 11.252 9.76301L14.832 6.18301C14.8889 6.12884 14.9342 6.06368 14.9651 5.99148C14.9961 5.91929 15.012 5.84156 15.012 5.76301H15.022C15.022 5.61301 14.962 5.45301 14.842 5.33301L11.262 1.75301C11.2058 1.69617 11.1388 1.65105 11.065 1.62025C10.9912 1.58946 10.912 1.5736 10.832 1.5736C10.752 1.5736 10.6729 1.58946 10.599 1.62025C10.5252 1.65105 10.4583 1.69617 10.402 1.75301L6.82201 5.34301C6.58201 5.57301 6.58201 5.95301 6.82201 6.19301ZM1.75201 11.263L5.33201 14.843C5.57201 15.083 5.95201 15.083 6.18201 14.843L9.76201 11.263C9.82013 11.2077 9.86613 11.1409 9.89711 11.0669C9.9281 10.9929 9.94339 10.9132 9.94201 10.833H9.95201C9.95201 10.673 9.89201 10.523 9.77201 10.403L6.19201 6.82301C6.13683 6.7661 6.07077 6.72085 5.99776 6.68995C5.92476 6.65905 5.84629 6.64313 5.76701 6.64313C5.68774 6.64313 5.60927 6.65905 5.53626 6.68995C5.46326 6.72085 5.3972 6.7661 5.34201 6.82301L1.75201 10.413C1.51201 10.643 1.51201 11.023 1.75201 11.263ZM8.68501 20.017L11.047 22.38L20.683 9.34001L20.028 8.68501L8.68501 20.017Z" fill="black"/>
<path d="M11.822 0.413012L19.349 7.94901L19.429 7.86901C19.5867 7.71469 19.7978 7.6272 20.0184 7.62477C20.239 7.62235 20.452 7.70519 20.613 7.85601L20.619 7.86201L21.486 8.72901C21.791 9.03401 21.801 9.49901 21.569 9.82301L21.565 9.83001L21.422 10.022L27.582 16.182C28.132 16.732 28.132 17.612 27.582 18.162L18.152 27.592C17.602 28.142 16.722 28.142 16.172 27.592L11.725 23.145C11.6512 23.2381 11.5584 23.3145 11.4529 23.3692C11.3474 23.4239 11.2316 23.4556 11.1129 23.4623C10.9943 23.469 10.8756 23.4505 10.7646 23.4081C10.6536 23.3656 10.5529 23.3002 10.469 23.216L7.86901 20.616C7.71469 20.4584 7.6272 20.2472 7.62477 20.0266C7.62235 19.806 7.70519 19.593 7.85601 19.432L7.86201 19.425L7.93901 19.349L0.412012 11.822C-0.137988 11.272 -0.137988 10.392 0.412012 9.84201L9.84201 0.412012C10.392 -0.137988 11.272 -0.137988 11.822 0.412012V0.413012ZM18.404 8.89301L16.648 7.13801C16.5928 7.0811 16.5268 7.03585 16.4538 7.00495C16.3808 6.97405 16.3023 6.95813 16.223 6.95813C16.1437 6.95813 16.0653 6.97405 15.9923 7.00495C15.9193 7.03585 15.8532 7.0811 15.798 7.13801L12.218 10.718C12.1613 10.7743 12.1163 10.8413 12.0856 10.9151C12.0548 10.9889 12.039 11.0681 12.039 11.148C12.039 11.2279 12.0548 11.3071 12.0856 11.3809C12.1163 11.4547 12.1613 11.5217 12.218 11.578L13.967 13.327L14.577 12.717L13.012 11.152L16.222 7.93201L17.791 9.50601L18.404 8.89301ZM13.328 13.965L11.574 12.211C11.5188 12.1541 11.4528 12.1088 11.3798 12.0779C11.3068 12.047 11.2283 12.0311 11.149 12.0311C11.0697 12.0311 10.9913 12.047 10.9183 12.0779C10.8453 12.1088 10.7792 12.1541 10.724 12.211L7.14401 15.791L7.13901 15.796L7.13401 15.801C6.89401 16.031 6.89401 16.411 7.13401 16.651L8.88601 18.403L9.50201 17.787L7.93201 16.223L11.152 13.013L12.716 14.576L13.328 13.965ZM6.82201 6.19301L10.402 9.77301C10.642 10.013 11.022 10.013 11.252 9.76301L14.832 6.18301C14.8889 6.12884 14.9342 6.06368 14.9651 5.99148C14.9961 5.91929 15.012 5.84156 15.012 5.76301H15.022C15.022 5.61301 14.962 5.45301 14.842 5.33301L11.262 1.75301C11.2058 1.69617 11.1388 1.65105 11.065 1.62025C10.9912 1.58946 10.912 1.5736 10.832 1.5736C10.752 1.5736 10.6729 1.58946 10.599 1.62025C10.5252 1.65105 10.4583 1.69617 10.402 1.75301L6.82201 5.34301C6.58201 5.57301 6.58201 5.95301 6.82201 6.19301ZM1.75201 11.263L5.33201 14.843C5.57201 15.083 5.95201 15.083 6.18201 14.843L9.76201 11.263C9.82013 11.2077 9.86613 11.1409 9.89711 11.0669C9.9281 10.9929 9.94339 10.9132 9.94201 10.833H9.95201C9.95201 10.673 9.89201 10.523 9.77201 10.403L6.19201 6.82301C6.13683 6.7661 6.07077 6.72085 5.99776 6.68995C5.92476 6.65905 5.84629 6.64313 5.76701 6.64313C5.68774 6.64313 5.60927 6.65905 5.53626 6.68995C5.46326 6.72085 5.3972 6.7661 5.34201 6.82301L1.75201 10.413C1.51201 10.643 1.51201 11.023 1.75201 11.263ZM8.68501 20.017L11.047 22.38L20.683 9.34001L20.028 8.68501L8.68501 20.017Z" fill="#FD9222"/>
</symbol>

<symbol id="coin" viewBox="0 0 28 28">
<path d="M14.0001 0.666748C6.66675 0.666748 0.666748 6.66675 0.666748 14.0001C0.666748 21.3334 6.66675 27.3334 14.0001 27.3334C21.3334 27.3334 27.3334 21.3334 27.3334 14.0001C27.3334 6.66675 21.3334 0.666748 14.0001 0.666748ZM14.0001 24.6667C8.13341 24.6667 3.33341 19.8667 3.33341 14.0001C3.33341 8.13341 8.13341 3.33341 14.0001 3.33341C19.8667 3.33341 24.6667 8.13341 24.6667 14.0001C24.6667 19.8667 19.8667 24.6667 14.0001 24.6667Z" fill="#FD9222"/>
<path d="M15.7335 12.6667H12.2668C11.6001 12.6667 11.0668 12.1333 11.0668 11.4667C11.0668 10.8 11.6001 10.2667 12.2668 10.2667H17.2001C18.0001 10.2667 18.5335 9.73332 18.5335 8.93332C18.5335 8.13332 18.0001 7.59998 17.2001 7.59998H15.3335V6.39998C15.3335 5.59998 14.8001 5.06665 14.0001 5.06665C13.2001 5.06665 12.6668 5.59998 12.6668 6.39998V7.59998H12.2668C10.1335 7.59998 8.40015 9.33332 8.40015 11.4667C8.40015 13.6 10.1335 15.3333 12.2668 15.3333H15.6001C16.2668 15.3333 16.8001 15.8666 16.8001 16.5333C16.8001 17.2 16.2668 17.7333 15.6001 17.7333H10.6668C9.86681 17.7333 9.33348 18.2667 9.33348 19.0667C9.33348 19.8667 9.86681 20.4 10.6668 20.4H12.6668V21.6C12.6668 22.4 13.2001 22.9333 14.0001 22.9333C14.8001 22.9333 15.3335 22.4 15.3335 21.6V20.4H15.7335C17.8668 20.4 19.6001 18.6667 19.6001 16.5333C19.6001 14.4 17.8668 12.6667 15.7335 12.6667Z" fill="#FD9222"/>
</symbol>

<symbol id="spoon" viewBox="0 0 28 28">
<path d="M13.4516 12.106C12.669 11.156 12.2751 9.99004 12.2751 8.82407C12.2751 4.50028 17.4561 0.181885 22.6372 0.181885C25.4976 0.181885 27.8183 2.50302 27.8183 5.36396C27.8183 10.546 23.5007 15.7281 19.1724 15.7281C18.0066 15.7281 16.8409 15.334 15.891 14.5513L3.13266 27.3122C2.45804 27.9869 1.36246 27.9869 0.687848 27.3122C0.0132305 26.6374 0.0132305 25.5416 0.687848 24.8669L13.4516 12.106Z" fill="#FD9222"/>
</symbol>

<symbol id="close" viewBox="0 0 28 28">
    <path d="M21 7L7 21" stroke="#111111" stroke-width="2" stroke-linecap="round" stroke-linejoin="round"/>
    <path d="M7 7L21 21" stroke="#111111" stroke-width="2" stroke-linecap="round" stroke-linejoin="round"/>

</symbol>

<symbol id="close-inversed" viewBox="0 0 28 28">
    <path d="M21 7L7 21" stroke="#FFFFFF" stroke-width="2" stroke-linecap="round" stroke-linejoin="round"/>
    <path d="M7 7L21 21" stroke="#FFFFFF" stroke-width="2" stroke-linecap="round" stroke-linejoin="round"/>

</symbol>

<symbol id="mastercard" viewBox="0 0 32 20">
    <path fill-rule="evenodd" clip-rule="evenodd" d="M16 16.8343C14.4022 18.2053 12.3295 19.033 10.0647 19.033C5.01106 19.033 0.914307 14.9122 0.914307 9.82898C0.914307 4.74576 5.01106 0.625 10.0647 0.625C12.3295 0.625 14.4022 1.45267 16 2.82371C17.5979 1.45267 19.6705 0.625 21.9354 0.625C26.989 0.625 31.0857 4.74576 31.0857 9.82898C31.0857 14.9122 26.989 19.033 21.9354 19.033C19.6705 19.033 17.5979 18.2053 16 16.8343Z" fill="#ED0006"/>
    <path fill-rule="evenodd" clip-rule="evenodd" d="M16 16.8343C17.9674 15.1461 19.215 12.6341 19.215 9.82898C19.215 7.02389 17.9674 4.51189 16 2.82371C17.5978 1.45267 19.6705 0.625 21.9354 0.625C26.989 0.625 31.0857 4.74576 31.0857 9.82898C31.0857 14.9122 26.989 19.033 21.9354 19.033C19.6705 19.033 17.5978 18.2053 16 16.8343Z" fill="#F9A000"/>
    <path fill-rule="evenodd" clip-rule="evenodd" d="M16.0001 16.8343C17.9675 15.1462 19.2151 12.6342 19.2151 9.82909C19.2151 7.02402 17.9675 4.51203 16.0001 2.82385C14.0327 4.51203 12.7852 7.02402 12.7852 9.82909C12.7852 12.6342 14.0327 15.1462 16.0001 16.8343Z" fill="#FF5E00"/>
</symbol>

<symbol id="flag" viewBox="0 0 32 24">
    <path d="M31.8318 0.0583496H0.242676V23.5665H31.8318V0.0583496Z" fill="#FFD700"/>
    <path fill-rule="evenodd" clip-rule="evenodd" d="M0.242676 0.0583496H31.8318V11.8124H0.242676V0.0583496Z" fill="#0057B7"/>
</symbol>

<symbol id="slider" viewBox="0 0 81 13">
    <path d="M22 0H7C3.41015 0 0.5 2.91015 0.5 6.5C0.5 10.0899 3.41015 13 7 13H22C25.5899 13 28.5 10.0899 28.5 6.5C28.5 2.91015 25.5899 0 22 0Z" fill="#FD9222"/>
    <path d="M48 13C51.5899 13 54.5 10.0899 54.5 6.5C54.5 2.91015 51.5899 0 48 0C44.4101 0 41.5 2.91015 41.5 6.5C41.5 10.0899 44.4101 13 48 13Z" fill="#111111" fill-opacity="0.1"/>
    <path d="M74 13C77.5899 13 80.5 10.0899 80.5 6.5C80.5 2.91015 77.5899 0 74 0C70.4101 0 67.5 2.91015 67.5 6.5C67.5 10.0899 70.4101 13 74 13Z" fill="#111111" fill-opacity="0.1"/>
</symbol>

<symbol id="arrow" viewBox="0 0 22 22">
<path d="M11.6508 12.2834C11.5655 12.3693 11.4642 12.4375 11.3525 12.484C11.2407 12.5306 11.1209 12.5545 10.9999 12.5545C10.8789 12.5545 10.7591 12.5306 10.6474 12.484C10.5357 12.4375 10.4343 12.3693 10.3491 12.2834L6.15075 8.07588C6.06553 7.98996 5.96415 7.92177 5.85244 7.87523C5.74074 7.82869 5.62092 7.80473 5.49991 7.80473C5.3789 7.80473 5.25909 7.82869 5.14738 7.87523C5.03568 7.92177 4.9343 7.98996 4.84908 8.07588C4.67835 8.24763 4.58252 8.47996 4.58252 8.72213C4.58252 8.9643 4.67835 9.19663 4.84908 9.36838L9.05659 13.5759C9.57221 14.0909 10.2712 14.3801 10.9999 14.3801C11.7287 14.3801 12.4276 14.0909 12.9433 13.5759L17.1508 9.36838C17.3201 9.19764 17.4156 8.96719 17.4166 8.72671C17.4173 8.60607 17.3942 8.48648 17.3486 8.3748C17.3029 8.26311 17.2357 8.16153 17.1508 8.07588C17.0655 7.98996 16.9642 7.92177 16.8525 7.87523C16.7408 7.82869 16.6209 7.80473 16.4999 7.80473C16.3789 7.80473 16.2591 7.82869 16.1474 7.87523C16.0357 7.92177 15.9343 7.98996 15.8491 8.07588L11.6508 12.2834Z" fill="#FD9222"/>
</symbol>

<symbol id="logo-svg" viewBox="0 0 24 24">
<path d="M2.95799 15.0568L11.0406 1.9886L11.5206 1.48303L17.6974 5.6014L17.7397 8.08665L19.2472 10.5463L12.5874 21.1038L2.95799 15.0568Z" fill="#FCF1E0"/>
<path d="M16.2259 17.9097L5.5868 11.2616M8.52069 6.44905L19.1598 13.0971M7.97248 19.3982L16.7742 4.96051M20.3823 11.0919C18.1025 9.6673 17.2071 8.55395 18.674 6.14767L11.4546 1.63647L2.6529 16.0742L13.2921 22.7223L20.3823 11.0919Z" stroke="#FD9222" stroke-width="2" stroke-linecap="round" stroke-linejoin="round"/>
</symbol>

<symbol id="instagram" viewBox="0 0 24 24">
<path xmlns="http://www.w3.org/2000/svg" fill-rule="evenodd" clip-rule="evenodd" d="M12 18C15.3137 18 18 15.3137 18 12C18 8.68629 15.3137 6 12 6C8.68629 6 6 8.68629 6 12C6 15.3137 8.68629 18 12 18ZM12 16C14.2091 16 16 14.2091 16 12C16 9.79086 14.2091 8 12 8C9.79086 8 8 9.79086 8 12C8 14.2091 9.79086 16 12 16Z" />
<path xmlns="http://www.w3.org/2000/svg" d="M18 5C17.4477 5 17 5.44772 17 6C17 6.55228 17.4477 7 18 7C18.5523 7 19 6.55228 19 6C19 5.44772 18.5523 5 18 5Z" />
<path xmlns="http://www.w3.org/2000/svg" fill-rule="evenodd" clip-rule="evenodd" d="M1.65396 4.27606C1 5.55953 1 7.23969 1 10.6V13.4C1 16.7603 1 18.4405 1.65396 19.7239C2.2292 20.8529 3.14708 21.7708 4.27606 22.346C5.55953 23 7.23969 23 10.6 23H13.4C16.7603 23 18.4405 23 19.7239 22.346C20.8529 21.7708 21.7708 20.8529 22.346 19.7239C23 18.4405 23 16.7603 23 13.4V10.6C23 7.23969 23 5.55953 22.346 4.27606C21.7708 3.14708 20.8529 2.2292 19.7239 1.65396C18.4405 1 16.7603 1 13.4 1H10.6C7.23969 1 5.55953 1 4.27606 1.65396C3.14708 2.2292 2.2292 3.14708 1.65396 4.27606ZM13.4 3H10.6C8.88684 3 7.72225 3.00156 6.82208 3.0751C5.94524 3.14674 5.49684 3.27659 5.18404 3.43597C4.43139 3.81947 3.81947 4.43139 3.43597 5.18404C3.27659 5.49684 3.14674 5.94524 3.0751 6.82208C3.00156 7.72225 3 8.88684 3 10.6V13.4C3 15.1132 3.00156 16.2777 3.0751 17.1779C3.14674 18.0548 3.27659 18.5032 3.43597 18.816C3.81947 19.5686 4.43139 20.1805 5.18404 20.564C5.49684 20.7234 5.94524 20.8533 6.82208 20.9249C7.72225 20.9984 8.88684 21 10.6 21H13.4C15.1132 21 16.2777 20.9984 17.1779 20.9249C18.0548 20.8533 18.5032 20.7234 18.816 20.564C19.5686 20.1805 20.1805 19.5686 20.564 18.816C20.7234 18.5032 20.8533 18.0548 20.9249 17.1779C20.9984 16.2777 21 15.1132 21 13.4V10.6C21 8.88684 20.9984 7.72225 20.9249 6.82208C20.8533 5.94524 20.7234 5.49684 20.564 5.18404C20.1805 4.43139 19.5686 3.81947 18.816 3.43597C18.5032 3.27659 18.0548 3.14674 17.1779 3.0751C16.2777 3.00156 15.1132 3 13.4 3Z" />
</symbol>

<symbol id="twitter" viewBox="0 0 24 24">
<path xmlns="http://www.w3.org/2000/svg" fill-rule="evenodd" clip-rule="evenodd" d="M19.7828 3.91825C20.1313 3.83565 20.3743 3.75444 20.5734 3.66915C20.8524 3.54961 21.0837 3.40641 21.4492 3.16524C21.7563 2.96255 22.1499 2.9449 22.4739 3.11928C22.7979 3.29366 23 3.6319 23 3.99986C23 5.08079 22.8653 5.96673 22.5535 6.7464C22.2911 7.40221 21.9225 7.93487 21.4816 8.41968C21.2954 11.7828 20.3219 14.4239 18.8336 16.4248C17.291 18.4987 15.2386 19.8268 13.0751 20.5706C10.9179 21.3121 8.63863 21.4778 6.5967 21.2267C4.56816 20.9773 2.69304 20.3057 1.38605 19.2892C1.02813 19.0108 0.902313 18.5264 1.07951 18.109C1.25671 17.6916 1.69256 17.4457 2.14144 17.5099C3.42741 17.6936 4.6653 17.4012 5.6832 16.9832C5.48282 16.8742 5.29389 16.7562 5.11828 16.6346C4.19075 15.9925 3.4424 15.1208 3.10557 14.4471C2.96618 14.1684 2.96474 13.8405 3.10168 13.5606C3.17232 13.4161 3.27562 13.293 3.40104 13.1991C2.04677 12.0814 1.49999 10.5355 1.49999 9.49986C1.49999 9.19192 1.64187 8.90115 1.88459 8.71165C1.98665 8.63197 2.10175 8.57392 2.22308 8.53896C2.12174 8.24222 2.0431 7.94241 1.98316 7.65216C1.71739 6.3653 1.74098 4.91284 2.02985 3.75733C2.1287 3.36191 2.45764 3.06606 2.86129 3.00952C3.26493 2.95299 3.6625 3.14709 3.86618 3.50014C4.94369 5.36782 6.93116 6.50943 8.78086 7.18568C9.6505 7.50362 10.4559 7.70622 11.0596 7.83078C11.1899 6.61019 11.5307 5.6036 12.0538 4.80411C12.7439 3.74932 13.7064 3.12525 14.74 2.84698C16.5227 2.36708 18.5008 2.91382 19.7828 3.91825ZM10.7484 9.80845C10.0633 9.67087 9.12171 9.43976 8.09412 9.06408C6.7369 8.56789 5.16088 7.79418 3.84072 6.59571C3.86435 6.81625 3.89789 7.03492 3.94183 7.24766C4.16308 8.31899 4.5742 8.91899 4.94721 9.10549C5.40342 9.3336 5.61484 9.8685 5.43787 10.3469C5.19827 10.9946 4.56809 11.0477 3.99551 10.9046C4.45603 11.595 5.28377 12.2834 6.66439 12.5135C7.14057 12.5929 7.49208 13.0011 7.49986 13.4838C7.50765 13.9665 7.16949 14.3858 6.69611 14.4805L5.82565 14.6546C5.95881 14.7703 6.103 14.8838 6.2567 14.9902C6.95362 15.4727 7.65336 15.6808 8.25746 15.5298C8.70991 15.4167 9.18047 15.6313 9.39163 16.0472C9.60278 16.463 9.49846 16.9696 9.14018 17.2681C8.49626 17.8041 7.74425 18.2342 6.99057 18.5911C6.63675 18.7587 6.24134 18.9241 5.8119 19.0697C6.14218 19.1402 6.48586 19.198 6.84078 19.2417C8.61136 19.4594 10.5821 19.3126 12.4249 18.6792C14.2614 18.0479 15.9589 16.9385 17.2289 15.2312C18.497 13.5262 19.382 11.1667 19.5007 7.96291C19.51 7.71067 19.6144 7.47129 19.7929 7.29281C20.2425 6.84316 20.6141 6.32777 20.7969 5.7143C20.477 5.81403 20.1168 5.90035 19.6878 5.98237C19.3623 6.04459 19.0272 5.94156 18.7929 5.70727C18.0284 4.94274 16.5164 4.43998 15.2599 4.77822C14.6686 4.93741 14.1311 5.28203 13.7274 5.89906C13.3153 6.52904 13 7.51045 13 8.9999C13 9.28288 12.8801 9.5526 12.6701 9.74221C12.1721 10.1917 11.334 9.92603 10.7484 9.80845Z" />
</symbol>

</svg>