<svg ria-hiddaen="true" style="position: absolute; width: 0; height: 0; overflow: hidden;" version="1.1" xmlns="http://www.w3.org/2000/svg" xmlns:xlink="http://www.w3.org/1999/xlink">

<symbol id="chocolate"  viewBox="0 0 28 28">
<path d="M11.822 0.413012L19.349 7.94901L19.429 7.86901C19.5867 7.71469 19.7978 7.6272 20.0184 7.62477C20.239 7.62235 20.452 7.70519 20.613 7.85601L20.619 7.86201L21.486 8.72901C21.791 9.03401 21.801 9.49901 21.569 9.82301L21.565 9.83001L21.422 10.022L27.582 16.182C28.132 16.732 28.132 17.612 27.582 18.162L18.152 27.592C17.602 28.142 16.722 28.142 16.172 27.592L11.725 23.145C11.6512 23.2381 11.5584 23.3145 11.4529 23.3692C11.3474 23.4239 11.2316 23.4556 11.1129 23.4623C10.9943 23.469 10.8756 23.4505 10.7646 23.4081C10.6536 23.3656 10.5529 23.3002 10.469 23.216L7.86901 20.616C7.71469 20.4584 7.6272 20.2472 7.62477 20.0266C7.62235 19.806 7.70519 19.593 7.85601 19.432L7.86201 19.425L7.93901 19.349L0.412012 11.822C-0.137988 11.272 -0.137988 10.392 0.412012 9.84201L9.84201 0.412012C10.392 -0.137988 11.272 -0.137988 11.822 0.412012V0.413012ZM18.404 8.89301L16.648 7.13801C16.5928 7.0811 16.5268 7.03585 16.4538 7.00495C16.3808 6.97405 16.3023 6.95813 16.223 6.95813C16.1437 6.95813 16.0653 6.97405 15.9923 7.00495C15.9193 7.03585 15.8532 7.0811 15.798 7.13801L12.218 10.718C12.1613 10.7743 12.1163 10.8413 12.0856 10.9151C12.0548 10.9889 12.039 11.0681 12.039 11.148C12.039 11.2279 12.0548 11.3071 12.0856 11.3809C12.1163 11.4547 12.1613 11.5217 12.218 11.578L13.967 13.327L14.577 12.717L13.012 11.152L16.222 7.93201L17.791 9.50601L18.404 8.89301ZM13.328 13.965L11.574 12.211C11.5188 12.1541 11.4528 12.1088 11.3798 12.0779C11.3068 12.047 11.2283 12.0311 11.149 12.0311C11.0697 12.0311 10.9913 12.047 10.9183 12.0779C10.8453 12.1088 10.7792 12.1541 10.724 12.211L7.14401 15.791L7.13901 15.796L7.13401 15.801C6.89401 16.031 6.89401 16.411 7.13401 16.651L8.88601 18.403L9.50201 17.787L7.93201 16.223L11.152 13.013L12.716 14.576L13.328 13.965ZM6.82201 6.19301L10.402 9.77301C10.642 10.013 11.022 10.013 11.252 9.76301L14.832 6.18301C14.8889 6.12884 14.9342 6.06368 14.9651 5.99148C14.9961 5.91929 15.012 5.84156 15.012 5.76301H15.022C15.022 5.61301 14.962 5.45301 14.842 5.33301L11.262 1.75301C11.2058 1.69617 11.1388 1.65105 11.065 1.62025C10.9912 1.58946 10.912 1.5736 10.832 1.5736C10.752 1.5736 10.6729 1.58946 10.599 1.62025C10.5252 1.65105 10.4583 1.69617 10.402 1.75301L6.82201 5.34301C6.58201 5.57301 6.58201 5.95301 6.82201 6.19301ZM1.75201 11.263L5.33201 14.843C5.57201 15.083 5.95201 15.083 6.18201 14.843L9.76201 11.263C9.82013 11.2077 9.86613 11.1409 9.89711 11.0669C9.9281 10.9929 9.94339 10.9132 9.94201 10.833H9.95201C9.95201 10.673 9.89201 10.523 9.77201 10.403L6.19201 6.82301C6.13683 6.7661 6.07077 6.72085 5.99776 6.68995C5.92476 6.65905 5.84629 6.64313 5.76701 6.64313C5.68774 6.64313 5.60927 6.65905 5.53626 6.68995C5.46326 6.72085 5.3972 6.7661 5.34201 6.82301L1.75201 10.413C1.51201 10.643 1.51201 11.023 1.75201 11.263ZM8.68501 20.017L11.047 22.38L20.683 9.34001L20.028 8.68501L8.68501 20.017Z" fill="black"/>
<path d="M11.822 0.413012L19.349 7.94901L19.429 7.86901C19.5867 7.71469 19.7978 7.6272 20.0184 7.62477C20.239 7.62235 20.452 7.70519 20.613 7.85601L20.619 7.86201L21.486 8.72901C21.791 9.03401 21.801 9.49901 21.569 9.82301L21.565 9.83001L21.422 10.022L27.582 16.182C28.132 16.732 28.132 17.612 27.582 18.162L18.152 27.592C17.602 28.142 16.722 28.142 16.172 27.592L11.725 23.145C11.6512 23.2381 11.5584 23.3145 11.4529 23.3692C11.3474 23.4239 11.2316 23.4556 11.1129 23.4623C10.9943 23.469 10.8756 23.4505 10.7646 23.4081C10.6536 23.3656 10.5529 23.3002 10.469 23.216L7.86901 20.616C7.71469 20.4584 7.6272 20.2472 7.62477 20.0266C7.62235 19.806 7.70519 19.593 7.85601 19.432L7.86201 19.425L7.93901 19.349L0.412012 11.822C-0.137988 11.272 -0.137988 10.392 0.412012 9.84201L9.84201 0.412012C10.392 -0.137988 11.272 -0.137988 11.822 0.412012V0.413012ZM18.404 8.89301L16.648 7.13801C16.5928 7.0811 16.5268 7.03585 16.4538 7.00495C16.3808 6.97405 16.3023 6.95813 16.223 6.95813C16.1437 6.95813 16.0653 6.97405 15.9923 7.00495C15.9193 7.03585 15.8532 7.0811 15.798 7.13801L12.218 10.718C12.1613 10.7743 12.1163 10.8413 12.0856 10.9151C12.0548 10.9889 12.039 11.0681 12.039 11.148C12.039 11.2279 12.0548 11.3071 12.0856 11.3809C12.1163 11.4547 12.1613 11.5217 12.218 11.578L13.967 13.327L14.577 12.717L13.012 11.152L16.222 7.93201L17.791 9.50601L18.404 8.89301ZM13.328 13.965L11.574 12.211C11.5188 12.1541 11.4528 12.1088 11.3798 12.0779C11.3068 12.047 11.2283 12.0311 11.149 12.0311C11.0697 12.0311 10.9913 12.047 10.9183 12.0779C10.8453 12.1088 10.7792 12.1541 10.724 12.211L7.14401 15.791L7.13901 15.796L7.13401 15.801C6.89401 16.031 6.89401 16.411 7.13401 16.651L8.88601 18.403L9.50201 17.787L7.93201 16.223L11.152 13.013L12.716 14.576L13.328 13.965ZM6.82201 6.19301L10.402 9.77301C10.642 10.013 11.022 10.013 11.252 9.76301L14.832 6.18301C14.8889 6.12884 14.9342 6.06368 14.9651 5.99148C14.9961 5.91929 15.012 5.84156 15.012 5.76301H15.022C15.022 5.61301 14.962 5.45301 14.842 5.33301L11.262 1.75301C11.2058 1.69617 11.1388 1.65105 11.065 1.62025C10.9912 1.58946 10.912 1.5736 10.832 1.5736C10.752 1.5736 10.6729 1.58946 10.599 1.62025C10.5252 1.65105 10.4583 1.69617 10.402 1.75301L6.82201 5.34301C6.58201 5.57301 6.58201 5.95301 6.82201 6.19301ZM1.75201 11.263L5.33201 14.843C5.57201 15.083 5.95201 15.083 6.18201 14.843L9.76201 11.263C9.82013 11.2077 9.86613 11.1409 9.89711 11.0669C9.9281 10.9929 9.94339 10.9132 9.94201 10.833H9.95201C9.95201 10.673 9.89201 10.523 9.77201 10.403L6.19201 6.82301C6.13683 6.7661 6.07077 6.72085 5.99776 6.68995C5.92476 6.65905 5.84629 6.64313 5.76701 6.64313C5.68774 6.64313 5.60927 6.65905 5.53626 6.68995C5.46326 6.72085 5.3972 6.7661 5.34201 6.82301L1.75201 10.413C1.51201 10.643 1.51201 11.023 1.75201 11.263ZM8.68501 20.017L11.047 22.38L20.683 9.34001L20.028 8.68501L8.68501 20.017Z" fill="#FD9222"/>
</symbol>

<symbol id="coin" viewBox="0 0 28 28">
<path d="M14.0001 0.666748C6.66675 0.666748 0.666748 6.66675 0.666748 14.0001C0.666748 21.3334 6.66675 27.3334 14.0001 27.3334C21.3334 27.3334 27.3334 21.3334 27.3334 14.0001C27.3334 6.66675 21.3334 0.666748 14.0001 0.666748ZM14.0001 24.6667C8.13341 24.6667 3.33341 19.8667 3.33341 14.0001C3.33341 8.13341 8.13341 3.33341 14.0001 3.33341C19.8667 3.33341 24.6667 8.13341 24.6667 14.0001C24.6667 19.8667 19.8667 24.6667 14.0001 24.6667Z" fill="#FD9222"/>
<path d="M15.7335 12.6667H12.2668C11.6001 12.6667 11.0668 12.1333 11.0668 11.4667C11.0668 10.8 11.6001 10.2667 12.2668 10.2667H17.2001C18.0001 10.2667 18.5335 9.73332 18.5335 8.93332C18.5335 8.13332 18.0001 7.59998 17.2001 7.59998H15.3335V6.39998C15.3335 5.59998 14.8001 5.06665 14.0001 5.06665C13.2001 5.06665 12.6668 5.59998 12.6668 6.39998V7.59998H12.2668C10.1335 7.59998 8.40015 9.33332 8.40015 11.4667C8.40015 13.6 10.1335 15.3333 12.2668 15.3333H15.6001C16.2668 15.3333 16.8001 15.8666 16.8001 16.5333C16.8001 17.2 16.2668 17.7333 15.6001 17.7333H10.6668C9.86681 17.7333 9.33348 18.2667 9.33348 19.0667C9.33348 19.8667 9.86681 20.4 10.6668 20.4H12.6668V21.6C12.6668 22.4 13.2001 22.9333 14.0001 22.9333C14.8001 22.9333 15.3335 22.4 15.3335 21.6V20.4H15.7335C17.8668 20.4 19.6001 18.6667 19.6001 16.5333C19.6001 14.4 17.8668 12.6667 15.7335 12.6667Z" fill="#FD9222"/>
</symbol>

<symbol id="spoon" viewBox="0 0 28 28">
<path d="M13.4516 12.106C12.669 11.156 12.2751 9.99004 12.2751 8.82407C12.2751 4.50028 17.4561 0.181885 22.6372 0.181885C25.4976 0.181885 27.8183 2.50302 27.8183 5.36396C27.8183 10.546 23.5007 15.7281 19.1724 15.7281C18.0066 15.7281 16.8409 15.334 15.891 14.5513L3.13266 27.3122C2.45804 27.9869 1.36246 27.9869 0.687848 27.3122C0.0132305 26.6374 0.0132305 25.5416 0.687848 24.8669L13.4516 12.106Z" fill="#FD9222"/>
</symbol>

<symbol id="close" viewBox="0 0 28 28">
    <path d="M21 7L7 21" stroke="#111111" stroke-width="2" stroke-linecap="round" stroke-linejoin="round"/>
    <path d="M7 7L21 21" stroke="#111111" stroke-width="2" stroke-linecap="round" stroke-linejoin="round"/>

</symbol>

<symbol id="close-inversed" viewBox="0 0 28 28">
    <path d="M21 7L7 21" stroke="#FFFFFF" stroke-width="2" stroke-linecap="round" stroke-linejoin="round"/>
    <path d="M7 7L21 21" stroke="#FFFFFF" stroke-width="2" stroke-linecap="round" stroke-linejoin="round"/>

</symbol>

<symbol id="mastercard" viewBox="0 0 32 20">
    <path fill-rule="evenodd" clip-rule="evenodd" d="M16 16.8343C14.4022 18.2053 12.3295 19.033 10.0647 19.033C5.01106 19.033 0.914307 14.9122 0.914307 9.82898C0.914307 4.74576 5.01106 0.625 10.0647 0.625C12.3295 0.625 14.4022 1.45267 16 2.82371C17.5979 1.45267 19.6705 0.625 21.9354 0.625C26.989 0.625 31.0857 4.74576 31.0857 9.82898C31.0857 14.9122 26.989 19.033 21.9354 19.033C19.6705 19.033 17.5979 18.2053 16 16.8343Z" fill="#ED0006"/>
    <path fill-rule="evenodd" clip-rule="evenodd" d="M16 16.8343C17.9674 15.1461 19.215 12.6341 19.215 9.82898C19.215 7.02389 17.9674 4.51189 16 2.82371C17.5978 1.45267 19.6705 0.625 21.9354 0.625C26.989 0.625 31.0857 4.74576 31.0857 9.82898C31.0857 14.9122 26.989 19.033 21.9354 19.033C19.6705 19.033 17.5978 18.2053 16 16.8343Z" fill="#F9A000"/>
    <path fill-rule="evenodd" clip-rule="evenodd" d="M16.0001 16.8343C17.9675 15.1462 19.2151 12.6342 19.2151 9.82909C19.2151 7.02402 17.9675 4.51203 16.0001 2.82385C14.0327 4.51203 12.7852 7.02402 12.7852 9.82909C12.7852 12.6342 14.0327 15.1462 16.0001 16.8343Z" fill="#FF5E00"/>
</symbol>

<symbol id="flag" viewBox="0 0 32 24">
    <path d="M31.8318 0.0583496H0.242676V23.5665H31.8318V0.0583496Z" fill="#FFD700"/>
    <path fill-rule="evenodd" clip-rule="evenodd" d="M0.242676 0.0583496H31.8318V11.8124H0.242676V0.0583496Z" fill="#0057B7"/>
</symbol>

<symbol id="slider" viewBox="0 0 81 13">
    <path d="M22 0H7C3.41015 0 0.5 2.91015 0.5 6.5C0.5 10.0899 3.41015 13 7 13H22C25.5899 13 28.5 10.0899 28.5 6.5C28.5 2.91015 25.5899 0 22 0Z" fill="#FD9222"/>
    <path d="M48 13C51.5899 13 54.5 10.0899 54.5 6.5C54.5 2.91015 51.5899 0 48 0C44.4101 0 41.5 2.91015 41.5 6.5C41.5 10.0899 44.4101 13 48 13Z" fill="#111111" fill-opacity="0.1"/>
    <path d="M74 13C77.5899 13 80.5 10.0899 80.5 6.5C80.5 2.91015 77.5899 0 74 0C70.4101 0 67.5 2.91015 67.5 6.5C67.5 10.0899 70.4101 13 74 13Z" fill="#111111" fill-opacity="0.1"/>
</symbol>

<symbol id="reviews__slider" viewBox="0 0 106 13">
    <path d="M21.5 0H6.5C2.91015 0 0 2.91015 0 6.5C0 10.0899 2.91015 13 6.5 13H21.5C25.0899 13 28 10.0899 28 6.5C28 2.91015 25.0899 0 21.5 0Z" fill="#FD9222"/>
    <path d="M47.5 13C51.0899 13 54 10.0899 54 6.5C54 2.91015 51.0899 0 47.5 0C43.9101 0 41 2.91015 41 6.5C41 10.0899 43.9101 13 47.5 13Z" fill="#111111" fill-opacity="0.1"/>
    <path d="M73.5 13C77.0899 13 80 10.0899 80 6.5C80 2.91015 77.0899 0 73.5 0C69.9101 0 67 2.91015 67 6.5C67 10.0899 69.9101 13 73.5 13Z" fill="#111111" fill-opacity="0.1"/>
    <path d="M99.5 13C103.09 13 106 10.0899 106 6.5C106 2.91015 103.09 0 99.5 0C95.9101 0 93 2.91015 93 6.5C93 10.0899 95.9101 13 99.5 13Z" fill="#111111" fill-opacity="0.1"/>
</symbol>

<symbol id="insta" viewBox="0 0 24 24">
    <path d="M17 2H7C4.23858 2 2 4.23858 2 7V17C2 19.7614 4.23858 22 7 22H17C19.7614 22 22 19.7614 22 17V7C22 4.23858 19.7614 2 17 2Z" stroke="white" stroke-width="2" fill="#1E1823" stroke-linecap="round" stroke-linejoin="round"/>
    <path d="M16 11.3701C16.1234 12.2023 15.9813 13.0523 15.5938 13.7991C15.2063 14.5459 14.5932 15.1515 13.8416 15.5297C13.0901 15.908 12.2385 16.0397 11.4078 15.906C10.5771 15.7723 9.80977 15.3801 9.21485 14.7852C8.61993 14.1903 8.22774 13.4229 8.09408 12.5923C7.96042 11.7616 8.09208 10.91 8.47034 10.1584C8.8486 9.40691 9.4542 8.7938 10.201 8.4063C10.9478 8.0188 11.7978 7.87665 12.63 8.00006C13.4789 8.12594 14.2649 8.52152 14.8717 9.12836C15.4785 9.73521 15.8741 10.5211 16 11.3701Z" stroke="white" fill="#1E1823" stroke-width="2" stroke-linecap="round" stroke-linejoin="round"/>
    <path d="M16 11.3701C16.1234 12.2023 15.9813 13.0523 15.5938 13.7991C15.2063 14.5459 14.5932 15.1515 13.8416 15.5297C13.0901 15.908 12.2385 16.0397 11.4078 15.906C10.5771 15.7723 9.80977 15.3801 9.21485 14.7852C8.61993 14.1903 8.22774 13.4229 8.09408 12.5923C7.96042 11.7616 8.09208 10.91 8.47034 10.1584C8.8486 9.40691 9.4542 8.7938 10.201 8.4063C10.9478 8.0188 11.7978 7.87665 12.63 8.00006C13.4789 8.12594 14.2649 8.52152 14.8717 9.12836C15.4785 9.73521 15.8741 10.5211 16 11.3701Z" stroke="white" fill="#1E1823" stroke-width="2" stroke-linecap="round" stroke-linejoin="round"/>
    <path d="M17.5 6.5H17.51" stroke="white" fill="#1E1823" stroke-width="2" stroke-linecap="round" stroke-linejoin="round"/>
    <path d="M17.5 6.5H17.51" stroke="white" fill="#1E1823" stroke-width="2" stroke-linecap="round" stroke-linejoin="round"/>
</symbol>

<symbol id="twitter" viewBox="0 0 24 24">
    <path d="M23 3.00005C22.0424 3.67552 20.9821 4.19216 19.86 4.53005C19.2577 3.83756 18.4573 3.34674 17.567 3.12397C16.6767 2.90121 15.7395 2.95724 14.8821 3.2845C14.0247 3.61176 13.2884 4.19445 12.773 4.95376C12.2575 5.71308 11.9877 6.61238 12 7.53005V8.53005C10.2426 8.57561 8.50127 8.18586 6.93101 7.39549C5.36074 6.60513 4.01032 4.72313 3 3.2845C3 3.2845 -1 13 8 17C5.94053 18.398 3.48716 19.099 1 19C10 24 21 19 21 7.50005C20.9991 7.2215 20.9723 6.94364 20.92 6.67005C21.9406 5.66354 22.6608 4.39276 23 3.00005Z" stroke="white" stroke-width="2" stroke-linecap="round" fill="#1E1823" stroke-linejoin="round"/>
</symbol>

</svg>